<svg width="146" height="107" viewBox="0 0 146 107" fill="none" xmlns="http://www.w3.org/2000/svg">
<rect width="146" height="107" fill="#F5F5F5"/>
<g id="&#240;&#159;&#166;&#134; icon &#34;sun 1&#34;">
<g id="Group">
<path id="Vector" d="M74.52 55.9C84.0404 55.9 91.758 48.3337 91.758 39C91.758 29.6664 84.0404 22.1 74.52 22.1C64.9997 22.1 57.282 29.6664 57.282 39C57.282 48.3337 64.9997 55.9 74.52 55.9Z" fill="#FDE400" stroke="#FDE400" stroke-width="3.978" stroke-linecap="round" stroke-linejoin="round"/>
<g id="Vector_2">
<path d="M93.4553 57.564L93.1105 57.226L93.4553 57.564Z" fill="#FDE400"/>
<path d="M93.4553 57.564L93.1105 57.226M93.1105 20.774L93.4553 20.436M55.5847 57.564L55.9295 57.226M74.52 13.208V13M74.52 65V64.792M48.2122 39H48M101.04 39H100.828M55.9295 20.774L55.5847 20.436" stroke="#FDE400" stroke-width="5.304" stroke-linecap="round" stroke-linejoin="round"/>
</g>
</g>
</g>
<g id="&#240;&#159;&#166;&#134; icon &#34;cloud&#34;">
<g id="Group_2">
<g id="Vector_3">
<path d="M79.9078 59.0812C78.4984 58.3632 76.9294 57.9909 75.3339 57.9909C62.8887 58.8684 62.8887 76.9778 75.3339 77.8554H104.825C108.415 77.882 111.872 76.5523 114.504 74.1324C123.253 66.5004 118.573 51.1567 107.059 49.694C102.91 24.777 66.9307 34.2439 75.4669 57.9909" fill="#84B3ED"/>
<path d="M79.9078 59.0812C78.4984 58.3632 76.9294 57.9909 75.3339 57.9909C62.8887 58.8684 62.8887 76.9778 75.3339 77.8554H104.825C108.415 77.8819 111.872 76.5523 114.504 74.1324C123.253 66.5004 118.573 51.1567 107.059 49.694C102.91 24.777 66.9307 34.2439 75.4669 57.9909" stroke="#84B3ED" stroke-width="3.98885" stroke-miterlimit="10" stroke-linecap="round" stroke-linejoin="round"/>
</g>
<g id="Vector_4">
<path d="M102.725 50.8641C104.108 50.1727 105.624 49.8004 107.166 49.7738L102.725 50.8641Z" fill="#84B3ED"/>
<path d="M102.725 50.8641C104.108 50.1727 105.624 49.8004 107.166 49.7738" stroke="#84B3ED" stroke-width="3.98885" stroke-miterlimit="10" stroke-linecap="round" stroke-linejoin="round"/>
</g>
</g>
<g id="Group_3">
<path id="Vector_5" d="M86.9376 89.6584C83.4123 92.4801 78.7831 94.0305 73.9759 93.9995H34.4855C17.856 92.9453 17.8204 71.8596 34.4855 70.8053H34.6635C25.049 47.4251 57.9161 35.89 71.7325 50.4329V50.4639C74.2251 53.1306 76.1124 56.6656 76.967 61.1618C81.7031 61.6889 85.5489 63.7044 88.2908 66.5572C94.5224 72.9759 95.0565 83.4567 86.9376 89.6584Z" fill="#B5D6FF" stroke="#B5D6FF" stroke-width="3.99023" stroke-miterlimit="10" stroke-linecap="round" stroke-linejoin="round"/>
<g id="Vector_6">
<path d="M40.6108 72.0766C38.7591 71.2704 36.7294 70.8363 34.664 70.8053L40.6108 72.0766Z" fill="#B5D6FF"/>
<path d="M40.6108 72.0766C38.7591 71.2704 36.7294 70.8363 34.664 70.8053" stroke="#B5D6FF" stroke-width="3.99023" stroke-miterlimit="10" stroke-linecap="round" stroke-linejoin="round"/>
</g>
<g id="Vector_7">
<path d="M71.1991 62.4951C73.0507 61.6889 75.0805 61.2548 77.1458 61.2238L71.1991 62.4951Z" fill="#B5D6FF"/>
<path d="M71.1991 62.4951C73.0507 61.6889 75.0805 61.2548 77.1458 61.2238" stroke="#B5D6FF" stroke-width="3.99023" stroke-miterlimit="10" stroke-linecap="round" stroke-linejoin="round"/>
</g>
<path id="Vector_8" d="M92.9915 58.0919C92.9915 61.5028 91.1754 64.5727 88.2911 66.5572C85.5492 63.7044 81.7034 61.6889 76.9674 61.1617C76.1128 56.6655 74.2255 53.1306 71.7328 50.4639V50.4329C73.9762 48.4483 77.1098 47.239 80.5283 47.239C87.4009 47.239 92.9915 52.1073 92.9915 58.0919Z" fill="#B5D6FF" stroke="#B5D6FF" stroke-width="3.99023" stroke-miterlimit="10" stroke-linecap="round" stroke-linejoin="round"/>
</g>
<g id="&#240;&#159;&#166;&#134; icon &#34;Cloud&#34;">
<path id="Vector_9" d="M69.88 81.5469C69.4444 80.4721 69.2 79.2969 69.2 78.0714C69.2 72.7478 73.7687 68.4286 79.4 68.4286C81.4931 68.4286 83.4481 69.0312 85.0631 70.0558C88.0062 65.2344 93.4994 62 99.8 62C109.192 62 116.8 69.192 116.8 78.0714C116.8 78.3426 116.789 78.6138 116.779 78.885C122.729 80.8638 127 86.2277 127 92.5357C127 100.521 120.147 107 111.7 107H72.6C65.0881 107 59 101.244 59 94.1429C59 87.9252 63.675 82.7321 69.88 81.5469Z" fill="#D9E5F4"/>
</g>
</g>
<path id="Weatherly" d="M8.35 24.695L8.56 18.745C6.32 18.465 4.44167 17.7067 2.925 16.47C1.40833 15.2333 0.65 13.5767 0.65 11.5C0.65 9.79667 1.49 8.15167 3.17 6.565C4.85 4.955 6.85667 4.15 9.19 4.15C12.62 4.15 14.335 6.37833 14.335 10.835C14.335 12.1417 14.2417 14.1483 14.055 16.855C13.8917 19.5383 13.81 21.5683 13.81 22.945C13.81 24.3217 14.1833 25.01 14.93 25.01C15.3733 25.01 16.015 24.6367 16.855 23.89C17.7183 23.12 18.4417 22.2917 19.025 21.405C19.5383 16.1317 19.795 12.9817 19.795 11.955C19.795 10.9283 19.7833 10.2283 19.76 9.855C19.76 9.48167 19.7367 9.12 19.69 8.77C19.6667 8.42 19.6433 8.16333 19.62 8C19.62 7.81333 19.5733 7.56833 19.48 7.265C19.41 6.96167 19.3633 6.78667 19.34 6.74C19.34 6.69333 19.2817 6.495 19.165 6.145C19.0717 5.795 19.025 5.60833 19.025 5.585C20.215 4.955 22.1633 4.47667 24.87 4.15V4.185C25.1267 5.00167 25.255 6.18 25.255 7.72C25.255 9.23667 25.0217 11.885 24.555 15.665C24.0883 19.445 23.855 21.9533 23.855 23.19C23.855 24.4033 24.205 25.01 24.905 25.01C25.6283 25.01 26.4917 24.38 27.495 23.12C28.5217 21.86 29.455 20.215 30.295 18.185C31.1583 16.155 31.695 14.1833 31.905 12.27C31.905 10.38 30.9133 8.19833 28.93 5.725C29.3967 4.72167 30.0033 3.82333 30.75 3.03C31.4967 2.21333 32.1267 1.65333 32.64 1.35L33.41 0.859999C34.2733 0.859999 35.0083 1.47833 35.615 2.715C36.245 3.92833 36.56 5.36333 36.56 7.02C36.56 8.65333 36.1167 10.765 35.23 13.355C34.3433 15.9217 33.2233 18.395 31.87 20.775C30.54 23.155 28.965 25.1967 27.145 26.9C25.3483 28.58 23.6333 29.42 22 29.42C21.16 29.42 20.425 29 19.795 28.16C19.165 27.32 18.8383 26.2467 18.815 24.94C17.8117 26.34 16.75 27.4367 15.63 28.23C14.51 29.0233 13.39 29.42 12.27 29.42C11.15 29.42 10.2167 28.965 9.47 28.055C8.72333 27.145 8.35 26.025 8.35 24.695ZM8.875 10.905C8.875 9.45833 8.735 8.47833 8.455 7.965C8.19833 7.42833 7.685 7.16 6.915 7.16C6.16833 7.16 5.29333 7.58 4.29 8.42C3.31 9.26 2.82 10.3567 2.82 11.71C2.82 13.0633 3.40333 14.1833 4.57 15.07C5.76 15.9567 7.13667 16.4 8.7 16.4C8.81667 14.1833 8.875 12.3517 8.875 10.905ZM35.8846 22.945C35.8846 20.0283 36.7596 17.73 38.5096 16.05C40.2829 14.3467 42.2896 13.495 44.5296 13.495C45.9063 13.495 47.0379 13.8333 47.9246 14.51C48.8113 15.1867 49.2546 16.0967 49.2546 17.24C49.2546 18.36 48.9629 19.305 48.3796 20.075C47.8196 20.845 47.1313 21.44 46.3146 21.86C44.6579 22.6767 43.1413 23.19 41.7646 23.4L40.9246 23.505C41.0879 25.6983 41.9863 26.795 43.6196 26.795C44.1796 26.795 44.7746 26.655 45.4046 26.375C46.0346 26.095 46.5246 25.815 46.8746 25.535L47.3996 25.115L48.2396 26.235C48.0529 26.4917 47.6796 26.83 47.1196 27.25C46.5596 27.67 46.0346 28.02 45.5446 28.3C44.1913 29.0467 42.7096 29.42 41.0996 29.42C39.4896 29.42 38.2179 28.8483 37.2846 27.705C36.3513 26.5617 35.8846 24.975 35.8846 22.945ZM40.8896 21.79C42.0796 21.58 43.0246 21.0783 43.7246 20.285C44.4246 19.4917 44.7746 18.465 44.7746 17.205C44.7746 15.945 44.4013 15.315 43.6546 15.315C42.7679 15.315 42.0796 16.0733 41.5896 17.59C41.1229 19.0833 40.8896 20.4833 40.8896 21.79ZM60.4341 14.51C60.4808 14.4633 60.6091 14.16 60.8191 13.6C61.9158 13.6 63.3858 13.9267 65.2291 14.58C64.6458 16.5167 64.1791 18.5467 63.8291 20.67C63.4791 22.77 63.3041 24.275 63.3041 25.185C63.3041 26.0717 63.3974 26.515 63.5841 26.515C63.7241 26.515 64.2374 26.2933 65.1241 25.85L65.5441 25.64L66.1741 26.865C65.9641 27.0517 65.6841 27.285 65.3341 27.565C65.0074 27.845 64.3774 28.23 63.4441 28.72C62.5108 29.1867 61.6708 29.42 60.9241 29.42C59.4774 29.42 58.6374 28.7667 58.4041 27.46C56.9108 28.7667 55.5574 29.42 54.3441 29.42C53.1541 29.42 52.1391 28.9533 51.2991 28.02C50.4824 27.0867 50.0741 25.6167 50.0741 23.61C50.0741 20.4833 50.7158 18.0217 51.9991 16.225C53.2824 14.405 54.8341 13.495 56.6541 13.495C57.9608 13.495 59.2208 13.8333 60.4341 14.51ZM56.4441 26.445C57.0041 26.445 57.6341 26.2233 58.3341 25.78C58.4974 22.49 59.0458 19.235 59.9791 16.015C59.2791 15.7117 58.6841 15.56 58.1941 15.56C57.3541 15.56 56.6308 16.3883 56.0241 18.045C55.4408 19.6783 55.1491 21.4867 55.1491 23.47C55.1491 25.4533 55.5808 26.445 56.4441 26.445ZM77.7755 13.915C77.7288 14.4983 77.5305 15.175 77.1805 15.945C76.2938 15.8517 75.4538 15.805 74.6605 15.805H74.0305C72.9572 21.0083 72.4205 24.2517 72.4205 25.535C72.4205 26.2117 72.5605 26.55 72.8405 26.55C73.1438 26.55 73.9255 26.2583 75.1855 25.675L75.8155 26.83C73.7388 28.5567 71.8138 29.42 70.0405 29.42C69.2238 29.42 68.5472 29.1633 68.0105 28.65C67.4972 28.1367 67.2405 27.46 67.2405 26.62C67.2405 25.7567 67.3338 24.7883 67.5205 23.715C67.7305 22.6417 68.0105 21.335 68.3605 19.795C68.7105 18.2317 68.9672 16.9717 69.1305 16.015C68.2672 16.085 67.6255 16.155 67.2055 16.225C67.1588 15.945 67.1355 15.5717 67.1355 15.105C67.1355 14.615 67.1705 14.2183 67.2405 13.915H69.4455C69.6322 12.655 69.7255 11.465 69.7255 10.345L69.6905 9.26V9.155C71.5105 8.525 73.2255 8.21 74.8355 8.21C74.9288 8.67667 74.9755 9.26 74.9755 9.96C74.9755 10.66 74.7772 11.9783 74.3805 13.915H77.7755ZM81.2378 5.9C81.2378 5.13 81.1678 4.58167 81.0278 4.255C82.8478 3.625 84.5628 3.31 86.1728 3.31C86.3828 3.52 86.4878 4.05667 86.4878 4.92C86.4878 6.46 85.8344 10.0067 84.5278 15.56C86.4178 14.1833 88.0744 13.495 89.4978 13.495C90.3844 13.495 91.0494 13.775 91.4928 14.335C91.9594 14.895 92.1928 15.6417 92.1928 16.575C92.1928 17.485 91.9244 18.99 91.3878 21.09C90.8511 23.1667 90.5828 24.59 90.5828 25.36C90.5828 26.13 90.6761 26.515 90.8628 26.515C91.0494 26.515 91.5394 26.305 92.3328 25.885L92.7528 25.675L93.3828 26.9C93.1728 27.0867 92.8928 27.32 92.5428 27.6C92.1928 27.88 91.5511 28.2533 90.6178 28.72C89.6844 29.1867 88.8211 29.42 88.0278 29.42C87.2578 29.42 86.6394 29.175 86.1728 28.685C85.7061 28.1717 85.4728 27.495 85.4728 26.655C85.4728 25.7917 85.7294 24.24 86.2428 22C86.7794 19.7367 87.0478 18.3133 87.0478 17.73C87.0478 17.1233 86.8028 16.82 86.3128 16.82C85.7061 16.82 84.9478 17.0767 84.0378 17.59C82.7544 23.2367 82.1128 26.9 82.1128 28.58C81.1328 28.9533 79.4644 29.14 77.1078 29.14C77.0844 28.7433 77.0728 28.3933 77.0728 28.09C77.0728 27.0867 77.7611 23.6567 79.1378 17.8C80.5378 11.9433 81.2378 7.97667 81.2378 5.9ZM94.3661 22.945C94.3661 20.0283 95.2411 17.73 96.9911 16.05C98.7644 14.3467 100.771 13.495 103.011 13.495C104.388 13.495 105.519 13.8333 106.406 14.51C107.293 15.1867 107.736 16.0967 107.736 17.24C107.736 18.36 107.444 19.305 106.861 20.075C106.301 20.845 105.613 21.44 104.796 21.86C103.139 22.6767 101.623 23.19 100.246 23.4L99.4061 23.505C99.5694 25.6983 100.468 26.795 102.101 26.795C102.661 26.795 103.256 26.655 103.886 26.375C104.516 26.095 105.006 25.815 105.356 25.535L105.881 25.115L106.721 26.235C106.534 26.4917 106.161 26.83 105.601 27.25C105.041 27.67 104.516 28.02 104.026 28.3C102.673 29.0467 101.191 29.42 99.5811 29.42C97.9711 29.42 96.6994 28.8483 95.7661 27.705C94.8327 26.5617 94.3661 24.975 94.3661 22.945ZM99.3711 21.79C100.561 21.58 101.506 21.0783 102.206 20.285C102.906 19.4917 103.256 18.465 103.256 17.205C103.256 15.945 102.883 15.315 102.136 15.315C101.249 15.315 100.561 16.0733 100.071 17.59C99.6044 19.0833 99.3711 20.4833 99.3711 21.79ZM109.186 29.105H108.941C108.894 28.9183 108.871 28.4983 108.871 27.845C108.871 27.1683 109.186 25.3717 109.816 22.455C110.446 19.5383 110.761 17.87 110.761 17.45C110.761 16.7267 110.434 15.9333 109.781 15.07L109.466 14.65L109.501 14.195C110.761 13.845 112.779 13.67 115.556 13.67C115.836 14.2767 115.976 15.1283 115.976 16.225C116.232 15.805 116.769 15.245 117.586 14.545C118.402 13.845 119.242 13.495 120.106 13.495C121.366 13.495 121.996 14.5917 121.996 16.785C121.879 16.925 121.716 17.1117 121.506 17.345C121.319 17.555 120.922 17.8583 120.316 18.255C119.732 18.6517 119.161 18.8967 118.601 18.99C118.577 18.99 118.379 18.675 118.006 18.045C117.632 17.415 117.352 17.1 117.166 17.1C116.582 17.31 116.069 17.66 115.626 18.15C114.552 22.98 114.016 26.1067 114.016 27.53C114.016 28.0433 114.027 28.405 114.051 28.615C113.234 28.9417 111.612 29.105 109.186 29.105ZM123.93 29.42C123.136 29.42 122.471 29.1517 121.935 28.615C121.421 28.0783 121.165 27.3317 121.165 26.375C121.165 25.395 121.736 22.3033 122.88 17.1C124.046 11.8733 124.63 8.105 124.63 5.795L124.42 4.255C126.24 3.625 127.943 3.31 129.53 3.31C129.763 3.63667 129.88 4.20833 129.88 5.025C129.88 6.89167 129.285 10.5083 128.095 15.875C126.928 21.2183 126.345 24.3333 126.345 25.22C126.345 26.0833 126.45 26.515 126.66 26.515L129.11 25.64L129.74 26.865C128.946 27.495 127.978 28.0783 126.835 28.615C125.715 29.1517 124.746 29.42 123.93 29.42ZM133.576 29.14C131.64 29.14 130.671 28.0667 130.671 25.92C130.671 25.4067 130.905 23.925 131.371 21.475C131.838 19.025 132.071 16.9833 132.071 15.35C132.071 15 132.025 14.6733 131.931 14.37C133.191 13.88 134.918 13.635 137.111 13.635C137.228 13.9617 137.286 14.5217 137.286 15.315C137.286 16.1083 137.03 17.695 136.516 20.075C136.003 22.455 135.746 24.0067 135.746 24.73C135.746 25.4533 135.933 25.815 136.306 25.815C137.333 25.815 138.325 25.4533 139.281 24.73C139.351 23.8667 139.818 20.355 140.681 14.195C141.498 13.8683 142.968 13.705 145.091 13.705H145.756C145.476 14.8017 145.01 17.5783 144.356 22.035C143.726 26.4683 143.271 29.28 142.991 30.47C142.711 31.66 142.326 32.71 141.836 33.62C141.37 34.53 140.786 35.2067 140.086 35.65C139.41 36.1167 138.721 36.4317 138.021 36.595C137.321 36.7583 136.411 36.84 135.291 36.84C134.195 36.84 133.145 36.4783 132.141 35.755C131.161 35.055 130.671 34.4483 130.671 33.935C130.671 33.6083 131.08 33.1067 131.896 32.43C132.736 31.7533 133.436 31.3333 133.996 31.17C135.186 32.36 136.061 33.655 136.621 35.055C137.228 35.055 137.765 34.3317 138.231 32.885C138.698 31.4383 139.013 29.315 139.176 26.515C138.616 27.075 137.765 27.6583 136.621 28.265C135.478 28.8483 134.463 29.14 133.576 29.14Z" fill="#F5EFEF"/>
<path id="26 &#194;&#176; C" d="M92.5859 59V57.5352C97.7617 53.974 100.35 51.1419 100.35 49.0391C100.35 47.2812 99.2428 46.4023 97.0293 46.4023C95.597 46.4023 94.2461 46.7604 92.9766 47.4766V45.9141C94.2461 45.263 95.597 44.9375 97.0293 44.9375C100.447 44.9375 102.156 46.3047 102.156 49.0391C102.156 51.4479 99.8288 54.2799 95.1738 57.5352H102.156V59H92.5859ZM104.168 53.6289C104.168 50.0091 106.31 47.0046 110.594 44.6152L111.531 45.8555C109.174 47.0013 107.501 48.5605 106.512 50.5332C107.365 50.1882 108.393 50.0156 109.598 50.0156C112.944 50.0156 114.617 51.4805 114.617 54.4102C114.617 57.5352 112.85 59.0977 109.314 59.0977C105.883 59.0977 104.168 57.2747 104.168 53.6289ZM105.877 53.5703C105.877 56.2786 107.052 57.6328 109.402 57.6328C111.701 57.6328 112.85 56.5586 112.85 54.4102C112.85 52.457 111.736 51.4805 109.51 51.4805C108.117 51.4805 106.997 51.6367 106.15 51.9492C105.968 52.3398 105.877 52.8802 105.877 53.5703ZM122.625 47.5547C122.625 48.5117 123.107 48.9902 124.07 48.9902C125.008 48.9902 125.477 48.5117 125.477 47.5547C125.477 46.6172 125.008 46.1484 124.07 46.1484C123.107 46.1484 122.625 46.6172 122.625 47.5547ZM121.355 47.5742C121.355 45.8815 122.26 45.0352 124.07 45.0352C125.854 45.0352 126.746 45.8815 126.746 47.5742C126.746 49.2604 125.854 50.1035 124.07 50.1035C122.26 50.1035 121.355 49.2604 121.355 47.5742ZM144.812 58.5117C143.608 58.9023 142.306 59.0977 140.906 59.0977C136.023 59.0977 133.582 56.6725 133.582 51.8223C133.582 47.2324 136.023 44.9375 140.906 44.9375C142.306 44.9375 143.608 45.1328 144.812 45.5234V47.0859C143.608 46.6302 142.371 46.4023 141.102 46.4023C137.293 46.4023 135.389 48.209 135.389 51.8223C135.389 55.696 137.293 57.6328 141.102 57.6328C142.371 57.6328 143.608 57.4049 144.812 56.9492V58.5117Z" fill="#F7EDED"/>
<path id="MON" d="M99.6602 89V75.0352H101.955L107.082 86.6855L112.111 75.0352H114.309V89H112.697V77.5449L107.736 89H106.311L101.271 77.5449V89H99.6602ZM119.045 81.9785C119.045 85.748 120.747 87.6328 124.152 87.6328C127.486 87.6328 129.152 85.748 129.152 81.9785C129.152 78.2611 127.486 76.4023 124.152 76.4023C120.747 76.4023 119.045 78.2611 119.045 81.9785ZM117.141 82.0371C117.141 77.304 119.478 74.9375 124.152 74.9375C128.755 74.9375 131.057 77.304 131.057 82.0371C131.057 86.7441 128.755 89.0977 124.152 89.0977C119.478 89.0977 117.141 86.7441 117.141 82.0371ZM133.898 89V75.0352H135.705L144.25 86.2852V75.0352H145.959V89H144.152L135.607 77.6523V89H133.898Z" fill="#FBF3F3"/>
</svg>
