<svg id='logo' viewBox="0 0 206 97" fill="none" xmlns="http://www.w3.org/2000/svg">
    <rect width="206" height="97" fill="none" />
    <g id="&#240;&#159;&#166;&#134; icon &#34;sun 1&#34;">
        <g id="Group">
            <path id="Vector" d="M153.52 45.9C163.04 45.9 170.758 38.3337 170.758 29C170.758 19.6664 163.04 12.1 153.52 12.1C144 12.1 136.282 19.6664 136.282 29C136.282 38.3337 144 45.9 153.52 45.9Z" fill="#FDE400" stroke="#FDE400" stroke-width="3.978" stroke-linecap="round" stroke-linejoin="round" />
            <g id="Vector_2">
                <path d="M172.455 47.564L172.111 47.226Z" fill="#FDE400" />
                <path d="M172.455 47.564L172.111 47.226M172.111 10.774L172.455 10.436M134.585 47.564L134.929 47.226M153.52 3.208V3M153.52 55V54.792M127.212 29H127M180.04 29H179.828M134.929 10.774L134.585 10.436" stroke="#FDE400" stroke-width="5.304" stroke-linecap="round" stroke-linejoin="round" />
            </g>
        </g>
    </g>
    <g id="&#240;&#159;&#166;&#134; icon &#34;cloud&#34;">
        <g id="Group_2">
            <g id="Vector_3">
                <path d="M158.908 49.0812C157.498 48.3632 155.929 47.9909 154.334 47.9909C141.889 48.8684 141.889 66.9778 154.334 67.8554H183.825C187.415 67.8819 190.872 66.5523 193.504 64.1324C202.253 56.5004 197.573 41.1567 186.059 39.694C181.91 14.777 145.931 24.2439 154.467 47.9909" fill="#84B3ED" />
                <path d="M158.908 49.0812C157.498 48.3632 155.929 47.9909 154.334 47.9909C141.889 48.8684 141.889 66.9778 154.334 67.8554H183.825C187.415 67.8819 190.872 66.5523 193.504 64.1324C202.253 56.5004 197.573 41.1567 186.059 39.694C181.91 14.777 145.931 24.2439 154.467 47.9909" stroke="#84B3ED" stroke-width="3.98885" stroke-miterlimit="10" stroke-linecap="round" stroke-linejoin="round" />
            </g>
            <g id="Vector_4">
                <path d="M181.725 40.8641C183.108 40.1727 184.624 39.8004 186.166 39.7738Z" fill="#84B3ED" />
                <path d="M181.725 40.8641C183.108 40.1727 184.624 39.8004 186.166 39.7738" stroke="#84B3ED" stroke-width="3.98885" stroke-miterlimit="10" stroke-linecap="round" stroke-linejoin="round" />
            </g>
        </g>
        <g id="Group_3">
            <path id="Vector_5" d="M165.938 79.6584C162.412 82.4801 157.783 84.0305 152.976 83.9995H113.485C96.856 82.9453 96.8204 61.8596 113.485 60.8053H113.664C104.049 37.4251 136.916 25.89 150.732 40.4329V40.4639C153.225 43.1306 155.112 46.6656 155.967 51.1618C160.703 51.6889 164.549 53.7044 167.291 56.5572C173.522 62.9759 174.056 73.4567 165.938 79.6584Z" fill="#B5D6FF" stroke="#B5D6FF" stroke-width="3.99023" stroke-miterlimit="10" stroke-linecap="round" stroke-linejoin="round" />
            <g id="Vector_6">
                <path d="M119.611 62.0766C117.759 61.2704 115.729 60.8363 113.664 60.8053Z" fill="#B5D6FF" />
                <path d="M119.611 62.0766C117.759 61.2704 115.729 60.8363 113.664 60.8053" stroke="#B5D6FF" stroke-width="3.99023" stroke-miterlimit="10" stroke-linecap="round" stroke-linejoin="round" />
            </g>
            <g id="Vector_7">
                <path d="M150.199 52.4951C152.051 51.6889 154.08 51.2548 156.146 51.2238Z" fill="#B5D6FF" />
                <path d="M150.199 52.4951C152.051 51.6889 154.08 51.2548 156.146 51.2238" stroke="#B5D6FF" stroke-width="3.99023" stroke-miterlimit="10" stroke-linecap="round" stroke-linejoin="round" />
            </g>
            <path id="Vector_8" d="M171.992 48.0919C171.992 51.5028 170.175 54.5727 167.291 56.5572C164.549 53.7044 160.703 51.6889 155.967 51.1617C155.113 46.6655 153.225 43.1306 150.733 40.4639V40.4329C152.976 38.4483 156.11 37.239 159.528 37.239C166.401 37.239 171.992 42.1073 171.992 48.0919Z" fill="#B5D6FF" stroke="#B5D6FF" stroke-width="3.99023" stroke-miterlimit="10" stroke-linecap="round" stroke-linejoin="round" />
        </g>
        <g id="&#240;&#159;&#166;&#134; icon &#34;Cloud&#34;">
            <path id="Vector_9" d="M148.88 71.5469C148.444 70.4721 148.2 69.2969 148.2 68.0714C148.2 62.7478 152.769 58.4286 158.4 58.4286C160.493 58.4286 162.448 59.0312 164.063 60.0558C167.006 55.2344 172.499 52 178.8 52C188.192 52 195.8 59.192 195.8 68.0714C195.8 68.3426 195.789 68.6138 195.779 68.885C201.729 70.8638 206 76.2277 206 82.5357C206 90.5212 199.147 97 190.7 97H151.6C144.088 97 138 91.2444 138 84.1429C138 77.9252 142.675 72.7321 148.88 71.5469Z" fill="#D9E5F4" />
        </g>
    </g>
    <path id="Weatherly" d="M8.35 51.695L8.56 45.745C6.32 45.465 4.44167 44.7067 2.925 43.47C1.40833 42.2333 0.65 40.5767 0.65 38.5C0.65 36.7967 1.49 35.1517 3.17 33.565C4.85 31.955 6.85667 31.15 9.19 31.15C12.62 31.15 14.335 33.3783 14.335 37.835C14.335 39.1417 14.2417 41.1483 14.055 43.855C13.8917 46.5383 13.81 48.5683 13.81 49.945C13.81 51.3217 14.1833 52.01 14.93 52.01C15.3733 52.01 16.015 51.6367 16.855 50.89C17.7183 50.12 18.4417 49.2917 19.025 48.405C19.5383 43.1317 19.795 39.9817 19.795 38.955C19.795 37.9283 19.7833 37.2283 19.76 36.855C19.76 36.4817 19.7367 36.12 19.69 35.77C19.6667 35.42 19.6433 35.1633 19.62 35C19.62 34.8133 19.5733 34.5683 19.48 34.265C19.41 33.9617 19.3633 33.7867 19.34 33.74C19.34 33.6933 19.2817 33.495 19.165 33.145C19.0717 32.795 19.025 32.6083 19.025 32.585C20.215 31.955 22.1633 31.4767 24.87 31.15V31.185C25.1267 32.0017 25.255 33.18 25.255 34.72C25.255 36.2367 25.0217 38.885 24.555 42.665C24.0883 46.445 23.855 48.9533 23.855 50.19C23.855 51.4033 24.205 52.01 24.905 52.01C25.6283 52.01 26.4917 51.38 27.495 50.12C28.5217 48.86 29.455 47.215 30.295 45.185C31.1583 43.155 31.695 41.1833 31.905 39.27C31.905 37.38 30.9133 35.1983 28.93 32.725C29.3967 31.7217 30.0033 30.8233 30.75 30.03C31.4967 29.2133 32.1267 28.6533 32.64 28.35L33.41 27.86C34.2733 27.86 35.0083 28.4783 35.615 29.715C36.245 30.9283 36.56 32.3633 36.56 34.02C36.56 35.6533 36.1167 37.765 35.23 40.355C34.3433 42.9217 33.2233 45.395 31.87 47.775C30.54 50.155 28.965 52.1967 27.145 53.9C25.3483 55.58 23.6333 56.42 22 56.42C21.16 56.42 20.425 56 19.795 55.16C19.165 54.32 18.8383 53.2467 18.815 51.94C17.8117 53.34 16.75 54.4367 15.63 55.23C14.51 56.0233 13.39 56.42 12.27 56.42C11.15 56.42 10.2167 55.965 9.47 55.055C8.72333 54.145 8.35 53.025 8.35 51.695ZM8.875 37.905C8.875 36.4583 8.735 35.4783 8.455 34.965C8.19833 34.4283 7.685 34.16 6.915 34.16C6.16833 34.16 5.29333 34.58 4.29 35.42C3.31 36.26 2.82 37.3567 2.82 38.71C2.82 40.0633 3.40333 41.1833 4.57 42.07C5.76 42.9567 7.13667 43.4 8.7 43.4C8.81667 41.1833 8.875 39.3517 8.875 37.905ZM35.8846 49.945C35.8846 47.0283 36.7596 44.73 38.5096 43.05C40.2829 41.3467 42.2896 40.495 44.5296 40.495C45.9063 40.495 47.0379 40.8333 47.9246 41.51C48.8113 42.1867 49.2546 43.0967 49.2546 44.24C49.2546 45.36 48.9629 46.305 48.3796 47.075C47.8196 47.845 47.1313 48.44 46.3146 48.86C44.6579 49.6767 43.1413 50.19 41.7646 50.4L40.9246 50.505C41.0879 52.6983 41.9863 53.795 43.6196 53.795C44.1796 53.795 44.7746 53.655 45.4046 53.375C46.0346 53.095 46.5246 52.815 46.8746 52.535L47.3996 52.115L48.2396 53.235C48.0529 53.4917 47.6796 53.83 47.1196 54.25C46.5596 54.67 46.0346 55.02 45.5446 55.3C44.1913 56.0467 42.7096 56.42 41.0996 56.42C39.4896 56.42 38.2179 55.8483 37.2846 54.705C36.3513 53.5617 35.8846 51.975 35.8846 49.945ZM40.8896 48.79C42.0796 48.58 43.0246 48.0783 43.7246 47.285C44.4246 46.4917 44.7746 45.465 44.7746 44.205C44.7746 42.945 44.4013 42.315 43.6546 42.315C42.7679 42.315 42.0796 43.0733 41.5896 44.59C41.1229 46.0833 40.8896 47.4833 40.8896 48.79ZM60.4341 41.51C60.4808 41.4633 60.6091 41.16 60.8191 40.6C61.9158 40.6 63.3858 40.9267 65.2291 41.58C64.6458 43.5167 64.1791 45.5467 63.8291 47.67C63.4791 49.77 63.3041 51.275 63.3041 52.185C63.3041 53.0717 63.3974 53.515 63.5841 53.515C63.7241 53.515 64.2374 53.2933 65.1241 52.85L65.5441 52.64L66.1741 53.865C65.9641 54.0517 65.6841 54.285 65.3341 54.565C65.0074 54.845 64.3774 55.23 63.4441 55.72C62.5108 56.1867 61.6708 56.42 60.9241 56.42C59.4774 56.42 58.6374 55.7667 58.4041 54.46C56.9108 55.7667 55.5574 56.42 54.3441 56.42C53.1541 56.42 52.1391 55.9533 51.2991 55.02C50.4824 54.0867 50.0741 52.6167 50.0741 50.61C50.0741 47.4833 50.7158 45.0217 51.9991 43.225C53.2824 41.405 54.8341 40.495 56.6541 40.495C57.9608 40.495 59.2208 40.8333 60.4341 41.51ZM56.4441 53.445C57.0041 53.445 57.6341 53.2233 58.3341 52.78C58.4974 49.49 59.0458 46.235 59.9791 43.015C59.2791 42.7117 58.6841 42.56 58.1941 42.56C57.3541 42.56 56.6308 43.3883 56.0241 45.045C55.4408 46.6783 55.1491 48.4867 55.1491 50.47C55.1491 52.4533 55.5808 53.445 56.4441 53.445ZM77.7755 40.915C77.7288 41.4983 77.5305 42.175 77.1805 42.945C76.2938 42.8517 75.4538 42.805 74.6605 42.805H74.0305C72.9572 48.0083 72.4205 51.2517 72.4205 52.535C72.4205 53.2117 72.5605 53.55 72.8405 53.55C73.1438 53.55 73.9255 53.2583 75.1855 52.675L75.8155 53.83C73.7388 55.5567 71.8138 56.42 70.0405 56.42C69.2238 56.42 68.5472 56.1633 68.0105 55.65C67.4972 55.1367 67.2405 54.46 67.2405 53.62C67.2405 52.7567 67.3338 51.7883 67.5205 50.715C67.7305 49.6417 68.0105 48.335 68.3605 46.795C68.7105 45.2317 68.9672 43.9717 69.1305 43.015C68.2672 43.085 67.6255 43.155 67.2055 43.225C67.1588 42.945 67.1355 42.5717 67.1355 42.105C67.1355 41.615 67.1705 41.2183 67.2405 40.915H69.4455C69.6322 39.655 69.7255 38.465 69.7255 37.345L69.6905 36.26V36.155C71.5105 35.525 73.2255 35.21 74.8355 35.21C74.9288 35.6767 74.9755 36.26 74.9755 36.96C74.9755 37.66 74.7772 38.9783 74.3805 40.915H77.7755ZM81.2378 32.9C81.2378 32.13 81.1678 31.5817 81.0278 31.255C82.8478 30.625 84.5628 30.31 86.1728 30.31C86.3828 30.52 86.4878 31.0567 86.4878 31.92C86.4878 33.46 85.8344 37.0067 84.5278 42.56C86.4178 41.1833 88.0744 40.495 89.4978 40.495C90.3844 40.495 91.0494 40.775 91.4928 41.335C91.9594 41.895 92.1928 42.6417 92.1928 43.575C92.1928 44.485 91.9244 45.99 91.3878 48.09C90.8511 50.1667 90.5828 51.59 90.5828 52.36C90.5828 53.13 90.6761 53.515 90.8628 53.515C91.0494 53.515 91.5394 53.305 92.3328 52.885L92.7528 52.675L93.3828 53.9C93.1728 54.0867 92.8928 54.32 92.5428 54.6C92.1928 54.88 91.5511 55.2533 90.6178 55.72C89.6844 56.1867 88.8211 56.42 88.0278 56.42C87.2578 56.42 86.6394 56.175 86.1728 55.685C85.7061 55.1717 85.4728 54.495 85.4728 53.655C85.4728 52.7917 85.7294 51.24 86.2428 49C86.7794 46.7367 87.0478 45.3133 87.0478 44.73C87.0478 44.1233 86.8028 43.82 86.3128 43.82C85.7061 43.82 84.9478 44.0767 84.0378 44.59C82.7544 50.2367 82.1128 53.9 82.1128 55.58C81.1328 55.9533 79.4644 56.14 77.1078 56.14C77.0844 55.7433 77.0728 55.3933 77.0728 55.09C77.0728 54.0867 77.7611 50.6567 79.1378 44.8C80.5378 38.9433 81.2378 34.9767 81.2378 32.9ZM94.3661 49.945C94.3661 47.0283 95.2411 44.73 96.9911 43.05C98.7644 41.3467 100.771 40.495 103.011 40.495C104.388 40.495 105.519 40.8333 106.406 41.51C107.293 42.1867 107.736 43.0967 107.736 44.24C107.736 45.36 107.444 46.305 106.861 47.075C106.301 47.845 105.613 48.44 104.796 48.86C103.139 49.6767 101.623 50.19 100.246 50.4L99.4061 50.505C99.5694 52.6983 100.468 53.795 102.101 53.795C102.661 53.795 103.256 53.655 103.886 53.375C104.516 53.095 105.006 52.815 105.356 52.535L105.881 52.115L106.721 53.235C106.534 53.4917 106.161 53.83 105.601 54.25C105.041 54.67 104.516 55.02 104.026 55.3C102.673 56.0467 101.191 56.42 99.5811 56.42C97.9711 56.42 96.6994 55.8483 95.7661 54.705C94.8327 53.5617 94.3661 51.975 94.3661 49.945ZM99.3711 48.79C100.561 48.58 101.506 48.0783 102.206 47.285C102.906 46.4917 103.256 45.465 103.256 44.205C103.256 42.945 102.883 42.315 102.136 42.315C101.249 42.315 100.561 43.0733 100.071 44.59C99.6044 46.0833 99.3711 47.4833 99.3711 48.79ZM109.186 56.105H108.941C108.894 55.9183 108.871 55.4983 108.871 54.845C108.871 54.1683 109.186 52.3717 109.816 49.455C110.446 46.5383 110.761 44.87 110.761 44.45C110.761 43.7267 110.434 42.9333 109.781 42.07L109.466 41.65L109.501 41.195C110.761 40.845 112.779 40.67 115.556 40.67C115.836 41.2767 115.976 42.1283 115.976 43.225C116.232 42.805 116.769 42.245 117.586 41.545C118.402 40.845 119.242 40.495 120.106 40.495C121.366 40.495 121.996 41.5917 121.996 43.785C121.879 43.925 121.716 44.1117 121.506 44.345C121.319 44.555 120.922 44.8583 120.316 45.255C119.732 45.6517 119.161 45.8967 118.601 45.99C118.577 45.99 118.379 45.675 118.006 45.045C117.632 44.415 117.352 44.1 117.166 44.1C116.582 44.31 116.069 44.66 115.626 45.15C114.552 49.98 114.016 53.1067 114.016 54.53C114.016 55.0433 114.027 55.405 114.051 55.615C113.234 55.9417 111.612 56.105 109.186 56.105ZM123.93 56.42C123.136 56.42 122.471 56.1517 121.935 55.615C121.421 55.0783 121.165 54.3317 121.165 53.375C121.165 52.395 121.736 49.3033 122.88 44.1C124.046 38.8733 124.63 35.105 124.63 32.795L124.42 31.255C126.24 30.625 127.943 30.31 129.53 30.31C129.763 30.6367 129.88 31.2083 129.88 32.025C129.88 33.8917 129.285 37.5083 128.095 42.875C126.928 48.2183 126.345 51.3333 126.345 52.22C126.345 53.0833 126.45 53.515 126.66 53.515L129.11 52.64L129.74 53.865C128.946 54.495 127.978 55.0783 126.835 55.615C125.715 56.1517 124.746 56.42 123.93 56.42ZM133.576 56.14C131.64 56.14 130.671 55.0667 130.671 52.92C130.671 52.4067 130.905 50.925 131.371 48.475C131.838 46.025 132.071 43.9833 132.071 42.35C132.071 42 132.025 41.6733 131.931 41.37C133.191 40.88 134.918 40.635 137.111 40.635C137.228 40.9617 137.286 41.5217 137.286 42.315C137.286 43.1083 137.03 44.695 136.516 47.075C136.003 49.455 135.746 51.0067 135.746 51.73C135.746 52.4533 135.933 52.815 136.306 52.815C137.333 52.815 138.325 52.4533 139.281 51.73C139.351 50.8667 139.818 47.355 140.681 41.195C141.498 40.8683 142.968 40.705 145.091 40.705H145.756C145.476 41.8017 145.01 44.5783 144.356 49.035C143.726 53.4683 143.271 56.28 142.991 57.47C142.711 58.66 142.326 59.71 141.836 60.62C141.37 61.53 140.786 62.2067 140.086 62.65C139.41 63.1167 138.721 63.4317 138.021 63.595C137.321 63.7583 136.411 63.84 135.291 63.84C134.195 63.84 133.145 63.4783 132.141 62.755C131.161 62.055 130.671 61.4483 130.671 60.935C130.671 60.6083 131.08 60.1067 131.896 59.43C132.736 58.7533 133.436 58.3333 133.996 58.17C135.186 59.36 136.061 60.655 136.621 62.055C137.228 62.055 137.765 61.3317 138.231 59.885C138.698 58.4383 139.013 56.315 139.176 53.515C138.616 54.075 137.765 54.6583 136.621 55.265C135.478 55.8483 134.463 56.14 133.576 56.14Z" fill="#FFFFFF" />
</svg>
